<mxfile host="app.diagrams.net" modified="2024-08-27T19:32:35.777Z" agent="Mozilla/5.0 (Windows NT 10.0; Win64; x64) AppleWebKit/537.36 (KHTML, like Gecko) Chrome/123.0.0.0 Safari/537.36 OPR/109.0.0.0" etag="q-c0hLsLQlVX-LVI3gXA" version="24.5.4" type="device">
  <diagram name="Página-1" id="aaXgYFpgbuvjFV9Cc4A4">
    <mxGraphModel dx="1121" dy="637" grid="1" gridSize="10" guides="1" tooltips="1" connect="1" arrows="1" fold="1" page="1" pageScale="1" pageWidth="827" pageHeight="1169" math="0" shadow="0">
      <root>
        <mxCell id="0" />
        <mxCell id="1" parent="0" />
        <mxCell id="4yEahjZG7JQEitbNkfEi-1" value="Cliente" style="shape=umlActor;verticalLabelPosition=bottom;verticalAlign=top;html=1;outlineConnect=0;" vertex="1" parent="1">
          <mxGeometry x="110" y="120" width="30" height="60" as="geometry" />
        </mxCell>
        <mxCell id="4yEahjZG7JQEitbNkfEi-9" value="Retaurante" style="shape=umlActor;verticalLabelPosition=bottom;verticalAlign=top;html=1;outlineConnect=0;" vertex="1" parent="1">
          <mxGeometry x="690" y="120" width="30" height="60" as="geometry" />
        </mxCell>
        <mxCell id="4yEahjZG7JQEitbNkfEi-11" value="Login" style="ellipse;whiteSpace=wrap;html=1;" vertex="1" parent="1">
          <mxGeometry x="210" y="110" width="120" height="80" as="geometry" />
        </mxCell>
        <mxCell id="4yEahjZG7JQEitbNkfEi-13" value="" style="endArrow=none;html=1;rounded=0;entryX=0;entryY=0.5;entryDx=0;entryDy=0;" edge="1" parent="1" source="4yEahjZG7JQEitbNkfEi-1" target="4yEahjZG7JQEitbNkfEi-11">
          <mxGeometry width="50" height="50" relative="1" as="geometry">
            <mxPoint x="160" y="160" as="sourcePoint" />
            <mxPoint x="290" y="240" as="targetPoint" />
          </mxGeometry>
        </mxCell>
        <mxCell id="4yEahjZG7JQEitbNkfEi-14" value="Visualizar Pedido" style="ellipse;whiteSpace=wrap;html=1;" vertex="1" parent="1">
          <mxGeometry x="210" y="380" width="120" height="80" as="geometry" />
        </mxCell>
        <mxCell id="4yEahjZG7JQEitbNkfEi-15" value="Traçar rota do pedido" style="ellipse;whiteSpace=wrap;html=1;" vertex="1" parent="1">
          <mxGeometry x="40" y="545" width="120" height="80" as="geometry" />
        </mxCell>
        <mxCell id="4yEahjZG7JQEitbNkfEi-16" value="Avaliar pedido" style="ellipse;whiteSpace=wrap;html=1;" vertex="1" parent="1">
          <mxGeometry x="210" y="550" width="120" height="80" as="geometry" />
        </mxCell>
        <mxCell id="4yEahjZG7JQEitbNkfEi-17" value="Adicionar item ao carrinho" style="ellipse;whiteSpace=wrap;html=1;" vertex="1" parent="1">
          <mxGeometry x="210" y="250" width="120" height="80" as="geometry" />
        </mxCell>
        <mxCell id="4yEahjZG7JQEitbNkfEi-18" value="" style="endArrow=none;html=1;rounded=0;entryX=0.5;entryY=0;entryDx=0;entryDy=0;" edge="1" parent="1" target="4yEahjZG7JQEitbNkfEi-17">
          <mxGeometry width="50" height="50" relative="1" as="geometry">
            <mxPoint x="140" y="150" as="sourcePoint" />
            <mxPoint x="260" y="230" as="targetPoint" />
          </mxGeometry>
        </mxCell>
        <mxCell id="4yEahjZG7JQEitbNkfEi-19" value="" style="endArrow=classic;html=1;rounded=0;entryX=0.5;entryY=0;entryDx=0;entryDy=0;exitX=0.5;exitY=1;exitDx=0;exitDy=0;" edge="1" parent="1" source="4yEahjZG7JQEitbNkfEi-14" target="4yEahjZG7JQEitbNkfEi-16">
          <mxGeometry width="50" height="50" relative="1" as="geometry">
            <mxPoint x="80" y="530" as="sourcePoint" />
            <mxPoint x="130" y="480" as="targetPoint" />
          </mxGeometry>
        </mxCell>
        <mxCell id="4yEahjZG7JQEitbNkfEi-20" value="Includes" style="edgeLabel;html=1;align=center;verticalAlign=middle;resizable=0;points=[];" vertex="1" connectable="0" parent="4yEahjZG7JQEitbNkfEi-19">
          <mxGeometry x="-0.2042" relative="1" as="geometry">
            <mxPoint as="offset" />
          </mxGeometry>
        </mxCell>
        <mxCell id="4yEahjZG7JQEitbNkfEi-23" value="" style="endArrow=classic;html=1;rounded=0;entryX=0.5;entryY=0;entryDx=0;entryDy=0;exitX=0.5;exitY=1;exitDx=0;exitDy=0;" edge="1" parent="1" source="4yEahjZG7JQEitbNkfEi-17" target="4yEahjZG7JQEitbNkfEi-14">
          <mxGeometry width="50" height="50" relative="1" as="geometry">
            <mxPoint x="412" y="300" as="sourcePoint" />
            <mxPoint x="412" y="390" as="targetPoint" />
          </mxGeometry>
        </mxCell>
        <mxCell id="4yEahjZG7JQEitbNkfEi-24" value="Includes" style="edgeLabel;html=1;align=center;verticalAlign=middle;resizable=0;points=[];" vertex="1" connectable="0" parent="4yEahjZG7JQEitbNkfEi-23">
          <mxGeometry x="-0.2042" relative="1" as="geometry">
            <mxPoint as="offset" />
          </mxGeometry>
        </mxCell>
        <mxCell id="4yEahjZG7JQEitbNkfEi-29" value="" style="endArrow=classic;html=1;rounded=0;entryX=0.5;entryY=0;entryDx=0;entryDy=0;exitX=0.44;exitY=1.085;exitDx=0;exitDy=0;exitPerimeter=0;" edge="1" parent="1" source="4yEahjZG7JQEitbNkfEi-14" target="4yEahjZG7JQEitbNkfEi-15">
          <mxGeometry width="50" height="50" relative="1" as="geometry">
            <mxPoint x="130" y="440" as="sourcePoint" />
            <mxPoint x="130" y="530" as="targetPoint" />
          </mxGeometry>
        </mxCell>
        <mxCell id="4yEahjZG7JQEitbNkfEi-30" value="Includes" style="edgeLabel;html=1;align=center;verticalAlign=middle;resizable=0;points=[];" vertex="1" connectable="0" parent="4yEahjZG7JQEitbNkfEi-29">
          <mxGeometry x="-0.2042" relative="1" as="geometry">
            <mxPoint as="offset" />
          </mxGeometry>
        </mxCell>
        <mxCell id="4yEahjZG7JQEitbNkfEi-31" value="Cadastrar produto" style="ellipse;whiteSpace=wrap;html=1;" vertex="1" parent="1">
          <mxGeometry x="530" y="110" width="120" height="80" as="geometry" />
        </mxCell>
        <mxCell id="4yEahjZG7JQEitbNkfEi-32" value="" style="endArrow=none;html=1;rounded=0;exitX=1;exitY=0.5;exitDx=0;exitDy=0;" edge="1" parent="1" source="4yEahjZG7JQEitbNkfEi-31" target="4yEahjZG7JQEitbNkfEi-9">
          <mxGeometry width="50" height="50" relative="1" as="geometry">
            <mxPoint x="540" y="110" as="sourcePoint" />
            <mxPoint x="610" y="110" as="targetPoint" />
          </mxGeometry>
        </mxCell>
      </root>
    </mxGraphModel>
  </diagram>
</mxfile>
